<svg version="1.1" xmlns="http://www.w3.org/2000/svg" xmlns:xlink="http://www.w3.org/1999/xlink" width="218.56602" height="177.64102" viewBox="0,0,218.56602,177.64102"><g transform="translate(-130.71699,-91.17951)"><g stroke-miterlimit="10"><path d="M181.40321,91.38459c4.46194,-0.29421 5.28021,-0.28541 10.79308,0.11473c6.82802,0.49568 16.72849,3.81276 23.53852,7.88695c7.89614,4.72338 11.98792,8.74479 20.99015,20.62958c1.7073,2.25336 3.22474,4.09258 3.37224,4.08698c0.1475,-0.0056 0.89782,-0.9398 1.66733,-2.07627c2.24936,-3.32107 9.3981,-11.76634 11.96326,-14.3347c3.00568,-3.00928 9.62022,-8.43515 16.10676,-11.39188c9.19011,-4.19291 20.1287,-6.07425 23.13798,-4.05395c2.63311,1.76726 3.02127,3.15078 2.16342,7.70866c-2.08346,11.06691 4.60545,21.09249 15.05795,22.56995c3.64646,0.51527 5.34778,1.81803 6.11728,4.6846c1.70171,6.33994 5.3122,10.98456 10.57802,13.60889c3.89191,1.93916 10.67636,2.17381 15.21105,0.52567c6.28357,-2.28374 7.16501,-1.5698 7.1826,5.81507c0.04278,17.59273 -8.1116,38.72559 -22.34208,57.9025c-11.97233,16.13406 -33.23991,35.70872 -52.39724,48.2271c-2.00285,1.30913 -4.00158,2.62457 -5.99615,3.94628c-9.22209,6.12648 -22.68986,11.58578 -28.58169,11.58578c-13.56931,0 -44.58583,-19.68979 -69.89642,-44.37158c-38.16875,-37.22016 -49.81008,-81.41024 -29.46072,-111.83275c7.98529,-11.93795 23.67164,-20.10232 40.79467,-21.2316" fill="#dc9c5c" fill-rule="evenodd" stroke="none" stroke-width="1"/><path d="M160.27797,133.85087c0,-3.03757 2.46243,-5.5 5.5,-5.5c3.03757,0 5.5,2.46243 5.5,5.5c0,3.03757 -2.46243,5.5 -5.5,5.5c-3.03757,0 -5.5,-2.46243 -5.5,-5.5z" fill="#bd7538" fill-rule="nonzero" stroke="none" stroke-width="0.5"/><path d="M191.28534,117.80874c0,-1.24264 1.00736,-2.25 2.25,-2.25c1.24264,0 2.25,1.00736 2.25,2.25c0,1.24264 -1.00736,2.25 -2.25,2.25c-1.24264,0 -2.25,-1.00736 -2.25,-2.25z" fill="#bd7538" fill-rule="nonzero" stroke="none" stroke-width="0.5"/><path d="M221.44321,244.0457c0,-1.24264 1.00736,-2.25 2.25,-2.25c1.24264,0 2.25,1.00736 2.25,2.25c0,1.24264 -1.00736,2.25 -2.25,2.25c-1.24264,0 -2.25,-1.00736 -2.25,-2.25z" fill="#bd7538" fill-rule="nonzero" stroke="none" stroke-width="0.5"/><path d="M260.27056,190.182c0,-1.24264 1.00736,-2.25 2.25,-2.25c1.24264,0 2.25,1.00736 2.25,2.25c0,1.24264 -1.00736,2.25 -2.25,2.25c-1.24264,0 -2.25,-1.00736 -2.25,-2.25z" fill="#bd7538" fill-rule="nonzero" stroke="none" stroke-width="0.5"/><path d="M275.33301,104.90973c0,-1.24264 1.00736,-2.25 2.25,-2.25c1.24264,0 2.25,1.00736 2.25,2.25c0,1.24264 -1.00736,2.25 -2.25,2.25c-1.24264,0 -2.25,-1.00736 -2.25,-2.25z" fill="#bd7538" fill-rule="nonzero" stroke="none" stroke-width="0.5"/><path d="M252.81597,145.56611c0,-1.933 1.567,-3.5 3.5,-3.5c1.933,0 3.5,1.567 3.5,3.5c0,1.933 -1.567,3.5 -3.5,3.5c-1.933,0 -3.5,-1.567 -3.5,-3.5z" fill="#bd7538" fill-rule="nonzero" stroke="none" stroke-width="0.5"/><path d="M192.68861,212.18379c0,-1.933 1.567,-3.5 3.5,-3.5c1.933,0 3.5,1.567 3.5,3.5c0,1.933 -1.567,3.5 -3.5,3.5c-1.933,0 -3.5,-1.567 -3.5,-3.5z" fill="#bd7538" fill-rule="nonzero" stroke="none" stroke-width="0.5"/><path d="M246.44811,230.55264c0,-1.933 1.567,-3.5 3.5,-3.5c1.933,0 3.5,1.567 3.5,3.5c0,1.933 -1.567,3.5 -3.5,3.5c-1.933,0 -3.5,-1.567 -3.5,-3.5z" fill="#bd7538" fill-rule="nonzero" stroke="none" stroke-width="0.5"/><path d="M172.35034,183.682c0,-3.58985 2.91015,-6.5 6.5,-6.5c3.58985,0 6.5,2.91015 6.5,6.5c0,3.58985 -2.91015,6.5 -6.5,6.5c-3.58985,0 -6.5,-2.91015 -6.5,-6.5z" fill="#bd7538" fill-rule="nonzero" stroke="none" stroke-width="0.5"/><path d="M275.32826,206.87724c0,-3.58985 2.91015,-6.5 6.5,-6.5c3.58985,0 6.5,2.91015 6.5,6.5c0,3.58985 -2.91015,6.5 -6.5,6.5c-3.58985,0 -6.5,-2.91015 -6.5,-6.5z" fill="#bd7538" fill-rule="nonzero" stroke="none" stroke-width="0.5"/><path d="M275.08333,122.7071c0,-3.58985 2.91015,-6.5 6.5,-6.5c3.58985,0 6.5,2.91015 6.5,6.5c0,3.58985 -2.91015,6.5 -6.5,6.5c-3.58985,0 -6.5,-2.91015 -6.5,-6.5z" fill="#bd7538" fill-rule="nonzero" stroke="none" stroke-width="0.5"/><path d="M308.12678,166.3025c0,-3.03757 2.46243,-5.5 5.5,-5.5c3.03757,0 5.5,2.46243 5.5,5.5c0,3.03757 -2.46243,5.5 -5.5,5.5c-3.03757,0 -5.5,-2.46243 -5.5,-5.5z" fill="#bd7538" fill-rule="nonzero" stroke="none" stroke-width="0.5"/><path d="M206.99599,153.93414c0,-2.48528 2.01472,-4.5 4.5,-4.5c2.48528,0 4.5,2.01472 4.5,4.5c0,2.48528 -2.01472,4.5 -4.5,4.5c-2.48528,0 -4.5,-2.01472 -4.5,-4.5z" fill="#bd7538" fill-rule="nonzero" stroke="none" stroke-width="0.5"/><path d="M219.94321,183.77769c0,-3.31371 2.68629,-6 6,-6c3.31371,0 6,2.68629 6,6c0,3.31371 -2.68629,6 -6,6c-3.31371,0 -6,-2.68629 -6,-6z" fill="#bd7538" fill-rule="nonzero" stroke="none" stroke-width="0.5"/><path d="M164.0922,101.58091c0.93733,-0.51843 1.98159,-0.97217 2.70818,-1.19456c0.16014,-0.04901 0.56128,-0.14656 0.9549,-0.10528c0.3424,0.03591 0.6791,0.20004 0.84654,0.29986c0.75274,0.44876 1.41121,1.27381 1.52029,2.05791c0.25462,1.82755 -0.25173,2.45519 -3.72393,4.61966c-10.09173,6.28982 -17.75895,16.78538 -20.24109,28.50925c-1.06996,5.05621 -1.8515,15.85716 -0.79405,21.58577c3.63214,19.67084 13.47757,39.98771 36.06941,64.7934c0.40032,0.43954 0.74299,0.84637 0.95157,1.16009c0.20321,0.30564 -0.00797,1.05958 -0.67703,0.68796c-0.28236,-0.15684 -0.67806,-0.4483 -1.24242,-0.9541c-11.31301,-10.13931 -31.55214,-34.17598 -38.51381,-51.81465c-5.42683,-13.74972 -6.14254,-29.2317 -1.92478,-41.6323c3.95448,-11.62616 12.5681,-21.65292 24.06623,-28.01301" fill-opacity="0.51765" fill="#edc291" fill-rule="evenodd" stroke="#dc9c5c" stroke-width="2.5"/><path d="M313.62678,105.88883c0,-2.07107 1.67893,-3.75 3.75,-3.75c2.07107,0 3.75,1.67893 3.75,3.75c0,2.07107 -1.67893,3.75 -3.75,3.75c-2.07107,0 -3.75,-1.67893 -3.75,-3.75z" fill="#bd7538" fill-rule="nonzero" stroke="none" stroke-width="0.5"/><path d="M331.44512,117.80874c0,-3.03757 2.46244,-5.5 5.5,-5.5c3.03756,0 5.5,2.46243 5.5,5.5c0,3.03757 -2.46244,5.5 -5.5,5.5c-3.03756,0 -5.5,-2.46243 -5.5,-5.5z" fill="#c57b3b" fill-rule="nonzero" stroke="none" stroke-width="0.5"/><path d="M319.41252,208.22966c-0.40957,0.63765 -0.71354,1.02382 -0.94404,1.25008c-0.54618,0.53613 -0.9502,-0.13454 -0.83557,-0.4832c0.11767,-0.35789 0.33984,-0.84119 0.60889,-1.37134c10.58865,-20.86488 16.9126,-38.76644 19.18427,-54.44939c0.81517,-5.62767 3.83802,-5.15635 5.10336,-5.02149c1.81529,0.19346 2.49156,1.27655 2.76444,2.16766c0.20632,0.67376 0.19719,1.52195 0.06233,2.06771c-0.56016,2.2668 -2.34609,8.76013 -4.74229,15.24611c-5.35447,14.49338 -16.31377,32.98443 -21.20139,40.59386z" fill-opacity="0.34902" fill="#edc291" fill-rule="nonzero" stroke="#dc9c5c" stroke-width="2.5"/><path d="M177.42714,157.16561c0,-0.93664 0.7593,-1.69594 1.69594,-1.69594c0.93664,0 1.69595,0.7593 1.69595,1.69594c0,0.93664 -0.75931,1.69595 -1.69595,1.69595c-0.93664,0 -1.69594,-0.75931 -1.69594,-1.69595z" fill="#bd7538" fill-rule="nonzero" stroke="none" stroke-width="0.5"/></g></g></svg>
