<svg version="1.1" xmlns="http://www.w3.org/2000/svg" xmlns:xlink="http://www.w3.org/1999/xlink" width="800" height="800" viewBox="0,0,800,800"><g transform="translate(160,220)"><g fill="#ffffff" stroke="none" stroke-miterlimit="10"><path d="M640,169.70881c0,215.21505 -175.82418,389.68272 -392.76095,389.68272c-68.84273,0 -133.51159,-17.6085 -189.80663,-48.44295l-217.43242,69.05142l70.87749,-209.13686c-35.73874,-58.69501 -56.32113,-127.616 -56.32113,-201.18042c0.02609,-215.21505 175.79809,-389.68272 392.73486,-389.68272c216.91069,0.05217 392.70877,174.49376 392.70877,389.70881zM247.21297,-157.86154c-182.05889,0 -330.15293,146.97232 -330.15293,327.64861c0,71.68618 23.37366,138.05067 62.89497,192.05009l-41.21694,121.64216l126.8334,-40.30391c52.17335,34.22571 114.59875,54.15593 181.6415,54.15593c182.05889,0 330.20511,-146.94623 330.20511,-327.62253c0.05217,-180.59804 -148.12013,-327.57035 -330.20511,-327.57035zM445.57603,259.47305c-2.45215,-3.93909 -8.86947,-6.33906 -18.46936,-11.13901c-9.57381,-4.79995 -56.97329,-27.88665 -65.7645,-31.01705c-8.86947,-3.20866 -15.28679,-4.82603 -21.70411,4.74777c-6.33906,9.57381 -24.80843,31.06923 -30.46923,37.48655c-5.60863,6.39123 -11.21727,7.19992 -20.84325,2.47823c-9.62598,-4.85212 -40.66912,-14.8694 -77.45133,-47.39948c-28.61708,-25.35625 -47.9473,-56.58199 -53.52985,-66.1558c-5.66081,-9.54772 -0.57391,-14.71288 4.19995,-19.46066c4.3043,-4.3043 9.62598,-11.1651 14.45202,-16.77373c4.82603,-5.55646 6.41732,-9.49555 9.62598,-15.88678c3.15649,-6.39123 1.5652,-11.9477 -0.80869,-16.77373c-2.39997,-4.79995 -21.62585,-51.75596 -29.68663,-70.87749c-8.00861,-19.09544 -16.01722,-15.93896 -21.65194,-15.93896c-5.60863,0 -12.02596,-0.7826 -18.44328,-0.7826c-6.41732,0 -16.85199,2.32171 -25.6432,11.89552c-8.79121,9.57381 -33.67789,32.66051 -33.67789,79.6687c0,47.06036 34.46049,92.42508 39.28653,98.79023c4.85212,6.33906 66.62536,105.96407 164.47647,144.20713c97.90328,38.21698 97.90328,25.46059 115.53787,23.84322c17.68676,-1.61737 56.97329,-23.08671 64.95582,-45.36472c8.0347,-22.38237 8.0347,-41.55607 5.60863,-45.54733z"/></g></g></svg>